<svg width="24" height="24" viewBox="0 0 24 24" fill="none" xmlns="http://www.w3.org/2000/svg">
<path d="M23.1818 6.15449C23.1748 6.13105 23.1654 6.10996 23.156 6.08652C23.1537 6.08184 23.1513 6.0748 23.149 6.07012C23.142 6.05371 23.1349 6.03965 23.1256 6.02559C23.1209 6.01621 23.1138 6.00684 23.1091 5.99746C23.1021 5.98809 23.0974 5.97871 23.0904 5.96934C23.0834 5.95996 23.0763 5.95059 23.0693 5.94355C23.0552 5.9248 23.0388 5.9084 23.0248 5.89199C23.0248 5.89199 23.0248 5.88965 23.0224 5.88965C22.8982 5.75371 22.7224 5.66699 22.5185 5.66699H6.82243C6.69352 5.27793 6.56696 4.88887 6.43805 4.4998C6.29977 4.08262 6.17087 3.66309 6.02555 3.24824C6.02321 3.24121 6.02087 3.23652 6.01852 3.22949C5.92008 2.93418 5.65993 2.71387 5.34118 2.71387H1.48102C1.11305 2.71387 0.76149 3.0373 0.777896 3.41699C0.794303 3.79902 1.08727 4.12012 1.48102 4.12012H4.83258C4.88883 4.28418 4.94508 4.4623 5.00133 4.63105C5.21227 5.27559 5.42555 5.92012 5.63649 6.5623L6.45915 9.0584C6.5693 9.3959 6.6818 9.7334 6.79196 10.0709C7.1154 11.0506 7.43649 12.0303 7.75993 13.01C7.83024 13.2256 7.9029 13.4412 7.97321 13.6568C7.97321 13.6592 7.97087 13.6592 7.97087 13.6615C7.64274 14.2428 7.31696 14.8264 6.98883 15.4076C6.93493 15.5061 6.87868 15.5998 6.82477 15.6959C6.56462 16.1576 6.89274 16.7506 7.4318 16.7506H18.1638C18.6584 16.7506 19.1552 16.7646 19.6521 16.7553C19.6591 16.7553 19.6662 16.7576 19.6732 16.7576C20.0412 16.7576 20.3927 16.4318 20.3763 16.0521C20.3599 15.6701 20.067 15.3467 19.6732 15.3467H8.63883C8.80993 15.0443 8.97868 14.742 9.14977 14.4396C9.14977 14.4373 9.15212 14.435 9.15212 14.435H9.14977H18.3279C18.7709 14.435 19.2138 14.4584 19.6568 14.435C19.6638 14.435 19.6685 14.4373 19.6756 14.4373C20.0107 14.4373 20.2404 14.2146 20.3529 13.9217C20.674 13.0943 20.9927 12.2646 21.3138 11.4373C21.8248 10.1178 22.3357 8.7959 22.8466 7.47637C22.6756 7.91699 22.5068 8.35762 22.3357 8.79824C21.9959 9.67949 21.656 10.5584 21.3138 11.4396L20.5123 13.5139C20.7795 12.8225 21.0513 12.1311 21.3185 11.4373C21.8295 10.1178 22.3381 8.7959 22.8537 7.47637C22.9474 7.21621 23.1537 6.69355 23.1537 6.69355C23.1537 6.69355 23.1841 6.60684 23.2006 6.56465C23.2052 6.55293 23.2076 6.54121 23.2123 6.52949C23.2381 6.41934 23.2216 6.27637 23.1818 6.15449ZM17.5568 8.71621L17.142 9.13105L15.3326 10.9404C14.9529 11.3178 14.5756 11.6975 14.1959 12.0771C14.0177 12.2576 13.7131 12.2553 13.5326 12.0771L13.3334 11.8779L11.9459 10.4904C11.7607 10.3053 11.7748 10.0146 11.9459 9.82715C12.117 9.63965 12.4357 9.65371 12.6091 9.82715L12.8084 10.0264C13.1599 10.3779 13.5138 10.7271 13.8654 11.0811L13.9474 10.999L15.7568 9.18965L16.8935 8.05293C17.0787 7.86777 17.3693 7.88184 17.5568 8.05293C17.7443 8.22637 17.7302 8.54277 17.5568 8.71621ZM18.8951 20.6318C18.417 21.2107 17.5732 21.4357 16.8724 21.1709C16.1599 20.9014 15.6818 20.2311 15.6677 19.4693C15.6677 19.4693 15.6631 19.4693 15.6631 19.467C15.6631 19.4623 15.6584 19.4553 15.6584 19.4506V19.4482C15.6584 19.4436 15.6631 19.4365 15.6631 19.4318C15.6795 18.5881 16.2865 17.8217 17.1279 17.6576C17.8849 17.51 18.6631 17.8451 19.0662 18.5037C19.4693 19.1717 19.3873 20.0342 18.8951 20.6318ZM10.8138 20.6318C10.3357 21.2107 9.49196 21.4357 8.79118 21.1709C8.07868 20.9014 7.60524 20.2311 7.59118 19.4693C7.59118 19.4623 7.59352 19.4576 7.59352 19.4506V19.4482C7.59352 19.4436 7.58883 19.4365 7.59118 19.4318C7.60758 18.5881 8.20993 17.8217 9.05133 17.6576C9.80837 17.51 10.5841 17.8451 10.9873 18.5037C11.3927 19.1717 11.3084 20.0342 10.8138 20.6318Z" fill="white"/>
</svg>
