<svg width="24" height="24" viewBox="0 0 24 24" fill="none" xmlns="http://www.w3.org/2000/svg">
<path d="M18.2844 1.30469H5.7144C4.3044 1.30469 3.11939 2.31717 2.9019 3.7122L0.411896 19.3947C0.276904 20.2197 0.516904 21.0597 1.05688 21.6972C1.5969 22.3272 2.3919 22.6947 3.2244 22.6947H20.7744C21.6069 22.6947 22.4019 22.3272 22.9419 21.6972C23.4819 21.0597 23.7219 20.2197 23.5869 19.3947L21.0969 3.7122C20.8794 2.31717 19.6944 1.30469 18.2844 1.30469ZM17.0769 9.05966C17.0769 11.8647 14.8044 14.1447 11.9994 14.1447C9.19441 14.1447 6.92189 11.8647 6.92189 9.05966V5.93968C6.92189 5.31716 7.42442 4.81468 8.04689 4.81468C8.6619 4.81468 9.17189 5.31716 9.17189 5.93968V9.05966C9.17189 10.6197 10.4394 11.8947 11.9994 11.8947C13.5594 11.8947 14.8269 10.6197 14.8269 9.05966V5.93968C14.8269 5.31716 15.3369 4.81468 15.9519 4.81468C16.5744 4.81468 17.0769 5.31716 17.0769 5.93968V9.05966Z" fill="white"/>
</svg>
