<svg xmlns="http://www.w3.org/2000/svg" width="16" height="16" viewBox="0 0 24 24" fill="none" stroke="white" stroke-width="2" stroke-linecap="round" stroke-linejoin="round">
  <circle cx="12" cy="12" r="3"></circle>
  <path d="M19.4 15a1.65 1.65 0 0 0 .33 1.82l.06.06a2 
           2 0 0 1-2.83 2.83l-.06-.06a1.65 
           1.65 0 0 0-1.82-.33 1.65 1.65 
           0 0 0-1 1.51V21a2 2 0 0 
           1-4 0v-.09a1.65 1.65 0 0 
           0-1-1.51 1.65 1.65 0 0 
           0-1.82.33l-.06.06a2 2 0 0 
           1-2.83-2.83l.06-.06a1.65 1.65 
           0 0 0 .33-1.82 1.65 1.65 
           0 0 0-1.51-1H3a2 2 0 0 
           1 0-4h.09a1.65 1.65 0 0 
           0 1.51-1 1.65 1.65 0 0 
           0-.33-1.82l-.06-.06a2 2 0 0 
           1 2.83-2.83l.06.06a1.65 1.65 
           0 0 0 1.82.33h.09A1.65 1.65 
           0 0 0 11 3.09V3a2 2 0 0 
           1 4 0v.09c0 .66.39 1.26 1 
           1.51h.09a1.65 1.65 0 0 
           0 1.82-.33l.06-.06a2 2 0 0 
           1 2.83 2.83l-.06.06a1.65 
           1.65 0 0 0-.33 1.82v.09c.25.61.85 
           1 1.51 1H21a2 2 0 0 1 0 4h-.09c-.66 
           0-1.26.39-1.51 1z"></path>
</svg>
