<svg width="26" height="27" viewBox="0 0 26 27" fill="none" xmlns="http://www.w3.org/2000/svg">
<path d="M23.1778 19.6667L14.6445 4.73335C14.4584 4.40503 14.1886 4.13195 13.8625 3.94195C13.5365 3.75196 13.1659 3.65186 12.7885 3.65186C12.4111 3.65186 12.0405 3.75196 11.7144 3.94195C11.3884 4.13195 11.1185 4.40503 10.9325 4.73335L2.39914 19.6667C2.21107 19.9924 2.11245 20.362 2.11329 20.7382C2.11412 21.1143 2.21437 21.4835 2.40389 21.8084C2.5934 22.1332 2.86543 22.4022 3.19242 22.5881C3.5194 22.774 3.88971 22.8701 4.26581 22.8667H21.3325C21.7068 22.8663 22.0744 22.7674 22.3984 22.58C22.7224 22.3927 22.9914 22.1233 23.1784 21.7991C23.3653 21.4748 23.4637 21.1071 23.4636 20.7328C23.4635 20.3585 23.365 19.9908 23.1778 19.6667Z" stroke="#E2A904" stroke-width="2" stroke-linecap="round" stroke-linejoin="round"/>
<path d="M12.8008 10.0667V14.3333" stroke="#E2A904" stroke-width="2" stroke-linecap="round" stroke-linejoin="round"/>
<path d="M12.8008 18.6H12.8114" stroke="#E2A904" stroke-width="2" stroke-linecap="round" stroke-linejoin="round"/>
</svg>
