<!-- E-commerce empty state illustration (SVG) -->
<svg xmlns="http://www.w3.org/2000/svg"
     width="600" height="400" viewBox="0 0 600 400"
     role="img" aria-labelledby="emptyTitle emptyDesc" preserveAspectRatio="xMidYMid meet">
  <title id="emptyTitle">No products here</title>
  <desc id="emptyDesc">A friendly illustration of an empty shopping bag, box and magnifying glass indicating an empty e-commerce category.</desc>

  <!-- Color variables (can be overridden with CSS) -->
  <style>
    :root {
      --accent: #3b82f6;   /* primary accent */
      --muted: #94a3b8;    /* muted/secondary */
      --surface: #ffffff;  /* card background (not used if you prefer transparency) */
      --shadow: #e6eefc;
    }
    .accent { fill: var(--accent); }
    .muted  { fill: var(--muted); }
    .stroke { stroke: var(--muted); stroke-width: 2; stroke-linecap: round; stroke-linejoin: round; fill: none; }
  </style>

  <!-- subtle floating shadow -->
  <ellipse cx="300" cy="310" rx="160" ry="24" fill="var(--shadow)" opacity="0.9"/>

  <!-- empty box -->
  <g transform="translate(120,90)">
    <path d="M40 180 L220 180 L240 60 L60 40 Z" fill="#f8fafc" stroke="#e6eefc" />
    <path d="M60 40 L220 60 L140 120 L40 100 Z" fill="#fff" stroke="#e6eefc" />
    <path d="M140 120 L220 60" class="stroke"/>
    <rect x="90" y="110" width="80" height="40" rx="6" fill="#fff" stroke="#e6eefc"/>
    <!-- little tag inside the box -->
    <rect x="102" y="118" width="18" height="8" rx="2" fill="var(--accent)" />
  </g>

  <!-- shopping bag (empty) -->
  <g transform="translate(320,70)">
    <rect x="10" y="40" width="120" height="120" rx="12" fill="#fff" stroke="#e6eefc"/>
    <path d="M30 40 C30 18, 100 18, 100 40" fill="none" stroke="#e6eefc" stroke-width="4" stroke-linecap="round"/>
    <path d="M46 36 C46 24, 74 24, 74 36" fill="none" stroke="var(--muted)" stroke-width="4" stroke-linecap="round"/>
    <!-- handle -->
    <path d="M46 36 C46 20, 74 20, 74 36" fill="none" stroke="var(--accent)" stroke-width="4" stroke-linecap="round" opacity="0.9"/>
    <!-- small sparkle to hint 'empty but ready' -->
    <path d="M90 80 l6 -12 l12 0 l-12 0 z" fill="var(--accent)" opacity="0.08"/>
  </g>

  <!-- magnifying glass (search icon) -->
  <g transform="translate(420,230) scale(1.1)">
    <circle cx="20" cy="20" r="18" fill="none" stroke="var(--muted)" stroke-width="6"/>
    <rect x="34" y="34" width="36" height="8" rx="3" transform="rotate(45 34 34)" fill="var(--muted)"/>
    <circle cx="20" cy="20" r="6" fill="var(--accent)" opacity="0.12"/>
  </g>

  <!-- headline text inside SVG (optional) -->
 
</svg>
